<?xml version="1.0" encoding="UTF-8" standalone="no"?>
<svg width="474px" height="447px" viewBox="0 0 474 447" version="1.1" xmlns="http://www.w3.org/2000/svg" xmlns:xlink="http://www.w3.org/1999/xlink" xmlns:sketch="http://www.bohemiancoding.com/sketch/ns">
    <!-- Generator: Sketch 3.0.4 (8054) - http://www.bohemiancoding.com/sketch -->
    <title>Kiosk-Royal-Logo</title>
    <desc>Created with Sketch.</desc>
    <defs></defs>
    <g id="Page-1" stroke="none" stroke-width="1" fill="none" fill-rule="evenodd" sketch:type="MSPage">
        <g id="Kiosk-Royal-Logo" sketch:type="MSLayerGroup" transform="translate(1.000000, 0.000000)">
            <path d="M-0.242,0.447 L26.032,27.084 L52.367,0.447 L78.461,27.084 L104.57,0.447 L131.029,27.084 L157.35,0.447 L183.569,27.084 L209.798,0.447 L236.021,27.084 L262.353,0.447 L288.57,27.084 L314.905,0.447 L341.144,27.084 L367.469,0.447 L393.576,27.084 L420.019,0.447 L446.182,27.084 L472.226,1.029 L472.226,446.489 L-0.229,446.489 L-0.242,0.447 Z" id="Shape" fill="#BEA731" sketch:type="MSShapeGroup"></path>
            <path d="M99.319,148.516 L119.204,121.671 L136.769,121.671 L111.581,155.697 L139.862,196.793 L121.192,196.793 L101.196,167.296 L93.905,176.024 L93.905,196.793 L78.439,196.793 L78.439,121.671 L93.905,121.671 L93.905,147.632 C93.905,151.278 93.353,156.47 92.91,160.226 C94.679,156.249 96.999,151.609 99.319,148.516 L99.319,148.516 Z" id="Shape" fill="#FFFFFF" sketch:type="MSShapeGroup"></path>
            <path d="M155.442,121.671 L170.909,121.671 L170.909,196.793 L155.442,196.793 L155.442,121.671 L155.442,121.671 Z" id="Shape" fill="#FFFFFF" sketch:type="MSShapeGroup"></path>
            <path d="M189.249,159.232 C189.249,137.027 206.483,120.677 228.135,120.677 C249.788,120.677 267.023,137.027 267.023,159.232 C267.023,181.437 249.79,197.787 228.135,197.787 C206.482,197.787 189.249,181.437 189.249,159.232 L189.249,159.232 Z M251.113,159.232 C251.113,145.202 241.834,134.486 228.134,134.486 C214.436,134.486 205.156,145.202 205.156,159.232 C205.156,173.262 214.436,183.978 228.134,183.978 C241.834,183.978 251.113,173.262 251.113,159.232 L251.113,159.232 Z" id="Shape" fill="#FFFFFF" sketch:type="MSShapeGroup"></path>
            <path d="M275.863,181.989 L288.458,174.698 C291.77,180.111 296.08,184.088 303.703,184.088 C310.11,184.088 314.198,180.884 314.198,176.465 C314.198,171.162 310,169.284 302.928,166.191 L299.063,164.534 C287.905,159.784 280.502,153.818 280.502,141.224 C280.502,129.624 289.34,120.786 303.148,120.786 C312.98,120.786 320.049,124.211 325.131,133.159 L313.09,140.892 C310.439,136.142 307.567,134.263 303.148,134.263 C298.619,134.263 295.747,137.136 295.747,140.892 C295.747,145.532 298.619,147.41 305.248,150.282 L309.114,151.939 C322.26,157.573 329.662,163.318 329.662,176.244 C329.662,190.163 318.724,197.786 304.032,197.786 C289.673,197.787 280.394,190.938 275.863,181.989 L275.863,181.989 Z" id="Shape" fill="#FFFFFF" sketch:type="MSShapeGroup"></path>
            <path d="M367.559,148.516 L387.446,121.671 L405.01,121.671 L379.822,155.697 L408.102,196.793 L389.432,196.793 L369.438,167.296 L362.145,176.024 L362.145,196.793 L346.68,196.793 L346.68,121.671 L362.146,121.671 L362.146,147.632 C362.146,151.278 361.594,156.47 361.153,160.226 C362.919,156.249 365.239,151.609 367.559,148.516 L367.559,148.516 Z" id="Shape" fill="#FFFFFF" sketch:type="MSShapeGroup"></path>
            <path d="M133.897,293.898 L116,293.898 L103.627,274.898 C102.191,275.119 100.644,275.228 99.208,275.228 L93.905,275.228 L93.905,293.898 L78.439,293.898 L78.439,218.776 L99.208,218.776 C120.198,218.776 132.792,228.829 132.792,247.168 C132.792,258.878 127.6,266.28 118.32,270.478 L133.897,293.898 L133.897,293.898 Z M98.767,261.752 C111.361,261.752 116.885,257.773 116.885,247.169 C116.885,236.564 111.14,232.365 98.767,232.365 L93.906,232.365 L93.906,261.752 L98.767,261.752 L98.767,261.752 Z" id="Shape" fill="#FFFFFF" sketch:type="MSShapeGroup"></path>
            <path d="M142.971,256.338 C142.971,234.133 160.205,217.783 181.858,217.783 C203.511,217.783 220.745,234.133 220.745,256.338 C220.745,278.544 203.511,294.895 181.858,294.895 C160.205,294.895 142.971,278.544 142.971,256.338 L142.971,256.338 Z M204.836,256.338 C204.836,242.309 195.556,231.592 181.857,231.592 C168.158,231.592 158.878,242.309 158.878,256.338 C158.878,270.368 168.158,281.084 181.857,281.084 C195.556,281.084 204.836,270.368 204.836,256.338 L204.836,256.338 Z" id="Shape" fill="#FFFFFF" sketch:type="MSShapeGroup"></path>
            <path d="M251.688,270.037 L223.185,218.777 L240.308,218.777 L253.565,242.97 C256.438,248.274 259.641,257.222 259.641,257.222 C259.641,257.222 262.623,248.384 265.495,242.97 L278.2,218.777 L294,218.777 L267.265,268.932 L267.265,293.899 L251.689,293.899 L251.689,270.037 L251.688,270.037 L251.688,270.037 Z" id="Shape" fill="#FFFFFF" sketch:type="MSShapeGroup"></path>
            <path d="M316.206,218.114 L317.531,218.114 L351.887,293.898 L335.649,293.898 L332.114,284.392 L301.623,284.392 L298.088,293.898 L283.175,293.898 L316.206,218.114 L316.206,218.114 Z M326.591,272.468 L321.178,259.432 C318.968,254.129 316.65,244.954 316.65,244.954 C316.65,244.954 314.439,254.129 312.23,259.432 L306.817,272.468 L326.591,272.468 L326.591,272.468 Z" id="Shape" fill="#FFFFFF" sketch:type="MSShapeGroup"></path>
            <path d="M358.308,218.777 L373.775,218.777 L373.775,280.31 L407.8,280.31 L407.8,293.898 L358.308,293.898 L358.308,218.777 L358.308,218.777 Z" id="Shape" fill="#FFFFFF" sketch:type="MSShapeGroup"></path>
            <g id="Group" transform="translate(78.000000, 320.000000)" fill="#FFFFFF" sketch:type="MSShapeGroup">
                <path d="M0.065,13.649 C0.065,6.812 4.895,1.812 11.867,1.812 C15.642,1.812 18.364,2.833 20.268,5.009 L17.037,8.206 C15.881,7.017 14.554,6.098 11.867,6.098 C7.683,6.098 4.963,9.328 4.963,13.649 C4.963,17.968 7.752,21.268 12.616,21.268 C14.113,21.268 15.949,20.996 17.139,20.416 L17.139,17.015 L11.561,17.015 L11.561,12.832 L21.493,12.832 L21.493,22.831 C20.166,23.92 16.833,25.518 12.616,25.518 C5.065,25.521 0.065,20.486 0.065,13.649 L0.065,13.649 Z" id="Shape"></path>
                <path d="M27.923,10.726 L32.514,10.726 L32.446,13.344 C33.5,10.963 35.201,10.419 36.697,10.419 C37.649,10.419 38.364,10.69 38.942,10.997 L37.48,15.181 C36.902,14.91 36.358,14.74 35.711,14.74 C33.636,14.74 32.514,15.691 32.514,18.787 L32.514,25.216 L27.923,25.216 L27.923,10.726 L27.923,10.726 Z" id="Shape"></path>
                <path d="M49.021,14.194 C47.286,14.194 46.368,14.942 45.722,15.52 L43.171,12.798 C44.531,11.471 46.062,10.417 49.463,10.417 C53.171,10.417 55.993,12.424 55.993,16.98 L55.993,25.21 L51.435,25.21 L51.537,23.203 C50.449,24.87 49.19,25.515 47.252,25.515 C44.599,25.515 42.15,24.326 42.15,20.957 C42.15,17.862 44.497,16.603 48.068,16.603 L51.435,16.603 C51.368,14.942 50.551,14.194 49.021,14.194 L49.021,14.194 Z M48.307,19.33 C47.151,19.33 46.64,19.84 46.64,20.656 C46.64,21.471 47.32,21.949 48.613,21.949 C50.484,21.949 51.436,21.133 51.436,19.908 L51.436,19.33 L48.307,19.33 L48.307,19.33 Z" id="Shape"></path>
                <path d="M62.966,14.534 L60.551,14.534 L60.551,10.723 L62.966,10.723 L62.966,5.861 C62.966,2.12 64.735,0.215 68.306,0.215 C70.347,0.215 71.707,0.827 72.762,2.052 L70.28,5.114 C69.94,4.706 69.532,4.332 68.818,4.332 C68.069,4.332 67.56,4.739 67.56,5.794 L67.56,10.726 L71.471,10.726 L71.471,14.537 L67.56,14.537 L67.56,25.217 L62.968,25.217 L62.966,14.534 L62.966,14.534 Z" id="Shape"></path>
                <path d="M75.791,5.419 C75.791,3.752 77.151,2.563 78.716,2.563 C80.28,2.563 81.607,3.752 81.607,5.419 C81.607,7.119 80.281,8.311 78.716,8.311 C77.151,8.311 75.791,7.119 75.791,5.419 L75.791,5.419 Z M76.403,10.726 L80.995,10.726 L80.995,25.214 L76.403,25.214 L76.403,10.726 L76.403,10.726 Z" id="Shape"></path>
                <path d="M91.551,25.214 L86.96,25.214 L86.96,0.657 L91.551,0.657 L91.551,13.174 C91.551,14.262 91.449,15.385 91.313,16.303 L96.075,10.726 L101.177,10.726 L96.041,16.644 L101.721,25.214 L96.381,25.214 L92.776,19.738 L91.551,21.03 L91.551,25.214 L91.551,25.214 Z" id="Shape"></path>
                <path d="M130.194,17.255 C130.704,16.066 131.01,14.636 131.01,12.937 L135.296,12.937 C135.296,16.032 134.445,18.685 133.017,20.759 L136.622,25.214 L131.01,25.214 L129.854,23.785 C128.119,24.908 126.079,25.518 123.902,25.518 C118.154,25.518 114.923,22.663 114.923,18.716 C114.923,15.383 116.623,13.682 120.263,11.879 C119.106,10.315 118.664,8.853 118.664,7.288 C118.664,4.295 120.943,1.811 124.786,1.811 C128.459,1.811 130.772,3.954 130.772,7.184 C130.772,9.395 129.48,11.199 126.555,12.728 L130.194,17.255 L130.194,17.255 Z M122.406,14.567 C120.399,15.656 119.889,16.845 119.889,18.342 C119.889,20.28 121.114,21.404 123.903,21.404 C125.128,21.404 126.25,21.133 127.27,20.588 L122.406,14.567 L122.406,14.567 Z M126.623,7.153 C126.623,6.099 125.909,5.487 124.854,5.487 C123.8,5.487 123.018,6.201 123.018,7.22 C123.018,8.41 123.596,9.058 124.242,9.873 L124.31,9.975 C126.011,9.023 126.623,8.208 126.623,7.153 L126.623,7.153 Z" id="Shape"></path>
                <path d="M151.595,2.086 L156.357,2.086 L156.357,25.214 L151.595,25.214 L151.595,2.086 L151.595,2.086 Z" id="Shape"></path>
                <path d="M163.012,0.657 L167.571,0.657 L167.571,25.214 L163.012,25.214 L163.012,0.657 L163.012,0.657 Z" id="Shape"></path>
                <path d="M173.521,0.657 L178.079,0.657 L178.079,25.214 L173.521,25.214 L173.521,0.657 L173.521,0.657 Z" id="Shape"></path>
                <path d="M183.905,19.092 L183.905,10.726 L188.497,10.726 L188.497,18.787 C188.497,20.42 189.279,21.372 190.912,21.372 C192.749,21.372 193.768,20.318 193.768,18.48 L193.768,10.726 L198.36,10.726 L198.36,25.214 L193.768,25.214 L193.871,22.833 C192.987,24.567 191.32,25.521 189.313,25.521 C186.15,25.521 183.905,23.207 183.905,19.092 L183.905,19.092 Z" id="Shape"></path>
                <path d="M203.116,22.765 L205.804,20.384 C206.79,21.337 208.048,21.915 209.408,21.915 C210.905,21.915 211.381,21.644 211.381,21.03 C211.381,20.248 210.463,20.248 208.116,19.634 C206.142,19.124 203.931,18.035 203.931,15.009 C203.931,11.743 206.449,10.417 209.543,10.417 C211.924,10.417 213.624,11.199 214.814,12.424 L212.365,15.042 C211.685,14.464 210.665,13.954 209.577,13.954 C208.521,13.954 208.012,14.226 208.012,14.805 C208.012,15.62 208.931,15.723 210.905,16.165 C213.012,16.641 215.667,17.627 215.667,20.687 C215.667,23.339 214.272,25.517 209.715,25.517 C206.348,25.521 204.375,24.262 203.116,22.765 L203.116,22.765 Z" id="Shape"></path>
                <path d="M221.578,19.771 L221.578,14.535 L219.434,14.535 L219.434,10.724 L221.578,10.724 L221.578,3.173 L226.136,3.173 L226.136,10.724 L229.843,10.724 L229.843,14.535 L226.136,14.535 L226.136,19.909 C226.136,21.371 226.613,21.678 227.326,21.678 C228.074,21.678 228.618,21.27 228.925,21.067 L230.659,24.263 C229.945,24.841 228.721,25.589 226.611,25.589 C223.687,25.588 221.578,24.125 221.578,19.771 L221.578,19.771 Z" id="Shape"></path>
                <path d="M235.312,10.726 L239.905,10.726 L239.837,13.344 C240.892,10.963 242.592,10.419 244.089,10.419 C245.041,10.419 245.755,10.69 246.333,10.997 L244.871,15.181 C244.293,14.91 243.748,14.74 243.101,14.74 C241.027,14.74 239.905,15.691 239.905,18.787 L239.905,25.216 L235.312,25.216 L235.312,10.726 L235.312,10.726 Z" id="Shape"></path>
                <path d="M256.409,14.194 C254.675,14.194 253.756,14.942 253.11,15.52 L250.558,12.798 C251.918,11.471 253.45,10.417 256.85,10.417 C260.557,10.417 263.38,12.424 263.38,16.98 L263.38,25.21 L258.822,25.21 L258.924,23.203 C257.836,24.87 256.577,25.515 254.639,25.515 C251.987,25.515 249.537,24.326 249.537,20.957 C249.537,17.862 251.884,16.603 255.455,16.603 L258.822,16.603 C258.756,14.942 257.938,14.194 256.409,14.194 L256.409,14.194 Z M255.695,19.33 C254.538,19.33 254.028,19.84 254.028,20.656 C254.028,21.471 254.709,21.949 256.001,21.949 C257.872,21.949 258.824,21.133 258.824,19.908 L258.824,19.33 L255.695,19.33 L255.695,19.33 Z" id="Shape"></path>
                <path d="M270.083,19.771 L270.083,14.535 L267.94,14.535 L267.94,10.724 L270.083,10.724 L270.083,3.173 L274.641,3.173 L274.641,10.724 L278.348,10.724 L278.348,14.535 L274.641,14.535 L274.641,19.909 C274.641,21.371 275.118,21.678 275.831,21.678 C276.579,21.678 277.123,21.27 277.43,21.067 L279.164,24.263 C278.45,24.841 277.226,25.589 275.116,25.589 C272.191,25.588 270.083,24.125 270.083,19.771 L270.083,19.771 Z" id="Shape"></path>
                <path d="M284.201,5.419 C284.201,3.752 285.561,2.563 287.126,2.563 C288.691,2.563 290.018,3.752 290.018,5.419 C290.018,7.119 288.691,8.311 287.126,8.311 C285.561,8.311 284.201,7.119 284.201,5.419 L284.201,5.419 Z M284.813,10.726 L289.405,10.726 L289.405,25.214 L284.813,25.214 L284.813,10.726 L284.813,10.726 Z" id="Shape"></path>
                <path d="M294.576,18.003 C294.576,13.582 298.08,10.419 302.569,10.419 C307.057,10.419 310.528,13.582 310.528,18.003 C310.528,22.392 307.057,25.521 302.569,25.521 C298.08,25.521 294.576,22.392 294.576,18.003 L294.576,18.003 Z M305.835,18.003 C305.835,15.826 304.61,14.364 302.569,14.364 C300.528,14.364 299.27,15.826 299.27,18.003 C299.27,20.148 300.528,21.644 302.569,21.644 C304.61,21.644 305.835,20.146 305.835,18.003 L305.835,18.003 Z" id="Shape"></path>
                <path d="M315.056,10.726 L319.648,10.726 L319.545,13.107 C320.43,11.373 322.13,10.419 324.137,10.419 C327.3,10.419 329.579,12.731 329.579,16.847 L329.579,25.214 L324.987,25.214 L324.987,17.153 C324.987,15.52 324.205,14.602 322.572,14.602 C320.735,14.602 319.647,15.622 319.647,17.457 L319.647,25.212 L315.054,25.212 L315.056,10.726 L315.056,10.726 Z" id="Shape"></path>
            </g>
        </g>
    </g>
</svg>