<?xml version="1.0" encoding="UTF-8" standalone="no"?>
<svg width="474px" height="447px" viewBox="0 0 474 447" version="1.1" xmlns="http://www.w3.org/2000/svg" xmlns:xlink="http://www.w3.org/1999/xlink" xmlns:sketch="http://www.bohemiancoding.com/sketch/ns">
    <!-- Generator: Sketch 3.0.4 (8054) - http://www.bohemiancoding.com/sketch -->
    <title>logo</title>
    <desc>Created with Sketch.</desc>
    <defs></defs>
    <g id="Page-1" stroke="none" stroke-width="1" fill="none" fill-rule="evenodd" sketch:type="MSPage">
        <g id="logo" sketch:type="MSLayerGroup" transform="translate(1.000000, 0.000000)">
            <g id="Group" sketch:type="MSShapeGroup">
                <path d="M-0.242,0.447 L26.032,27.084 L52.367,0.447 L78.461,27.084 L104.57,0.447 L131.029,27.084 L157.35,0.447 L183.569,27.084 L209.798,0.447 L236.021,27.084 L262.352,0.447 L288.57,27.084 L314.905,0.447 L341.143,27.084 L367.469,0.447 L393.576,27.084 L420.018,0.447 L446.182,27.084 L472.225,1.029 L472.225,446.489 L-0.229,446.489 L-0.242,0.447 Z" id="Shape" fill="#BEA731"></path>
                <path d="M94.319,148.516 L114.204,121.671 L131.769,121.671 L106.581,155.697 L134.862,196.793 L116.192,196.793 L96.196,167.296 L88.905,176.024 L88.905,196.793 L73.439,196.793 L73.439,121.671 L88.905,121.671 L88.905,147.632 C88.905,151.278 88.353,156.47 87.91,160.226 C89.679,156.249 91.999,151.609 94.319,148.516 L94.319,148.516 Z" id="Shape" fill="#FFFFFF"></path>
                <path d="M150.442,121.671 L165.909,121.671 L165.909,196.793 L150.442,196.793 L150.442,121.671 L150.442,121.671 Z" id="Shape" fill="#FFFFFF"></path>
                <path d="M184.249,159.232 C184.249,137.027 201.483,120.677 223.135,120.677 C244.788,120.677 262.022,137.027 262.022,159.232 C262.022,181.437 244.789,197.787 223.135,197.787 C201.482,197.787 184.249,181.437 184.249,159.232 L184.249,159.232 Z M246.113,159.232 C246.113,145.202 236.834,134.486 223.134,134.486 C209.436,134.486 200.156,145.202 200.156,159.232 C200.156,173.262 209.436,183.978 223.134,183.978 C236.834,183.978 246.113,173.262 246.113,159.232 L246.113,159.232 Z" id="Shape" fill="#FFFFFF"></path>
                <path d="M270.863,181.989 L283.458,174.698 C286.771,180.111 291.08,184.088 298.703,184.088 C305.11,184.088 309.198,180.884 309.198,176.465 C309.198,171.162 305,169.284 297.929,166.191 L294.063,164.534 C282.905,159.784 275.503,153.818 275.503,141.224 C275.503,129.624 284.341,120.786 298.149,120.786 C307.981,120.786 315.051,124.211 320.133,133.159 L308.092,140.892 C305.441,136.142 302.568,134.263 298.149,134.263 C293.62,134.263 290.748,137.136 290.748,140.892 C290.748,145.532 293.62,147.41 300.249,150.282 L304.115,151.939 C317.261,157.573 324.663,163.318 324.663,176.244 C324.663,190.163 313.726,197.786 299.033,197.786 C284.673,197.787 275.394,190.938 270.863,181.989 L270.863,181.989 Z" id="Shape" fill="#FFFFFF"></path>
                <path d="M362.559,148.516 L382.445,121.671 L400.01,121.671 L374.822,155.697 L403.103,196.793 L384.433,196.793 L364.438,167.296 L357.146,176.024 L357.146,196.793 L341.68,196.793 L341.68,121.671 L357.146,121.671 L357.146,147.632 C357.146,151.278 356.594,156.47 356.152,160.226 C357.919,156.249 360.239,151.609 362.559,148.516 L362.559,148.516 Z" id="Shape" fill="#FFFFFF"></path>
                <path d="M128.897,293.899 L111,293.899 L98.627,274.898 C97.191,275.119 95.644,275.229 94.208,275.229 L88.905,275.229 L88.905,293.899 L73.439,293.899 L73.439,218.777 L94.208,218.777 C115.198,218.777 127.792,228.83 127.792,247.169 C127.792,258.879 122.6,266.281 113.32,270.479 L128.897,293.899 L128.897,293.899 Z M93.767,261.752 C106.361,261.752 111.885,257.774 111.885,247.169 C111.885,236.564 106.14,232.365 93.767,232.365 L88.906,232.365 L88.906,261.752 L93.767,261.752 L93.767,261.752 Z" id="Shape" fill="#FFFFFF"></path>
                <path d="M137.971,256.338 C137.971,234.133 155.205,217.783 176.858,217.783 C198.511,217.783 215.745,234.133 215.745,256.338 C215.745,278.544 198.511,294.894 176.858,294.894 C155.205,294.894 137.971,278.544 137.971,256.338 L137.971,256.338 Z M199.836,256.338 C199.836,242.309 190.556,231.592 176.857,231.592 C163.158,231.592 153.878,242.309 153.878,256.338 C153.878,270.368 163.158,281.084 176.857,281.084 C190.556,281.084 199.836,270.368 199.836,256.338 L199.836,256.338 Z" id="Shape" fill="#FFFFFF"></path>
                <path d="M246.688,270.037 L218.185,218.777 L235.309,218.777 L248.566,242.97 C251.438,248.273 254.642,257.222 254.642,257.222 C254.642,257.222 257.624,248.384 260.496,242.97 L273.201,218.777 L289,218.777 L262.265,268.932 L262.265,293.899 L246.689,293.899 L246.689,270.037 L246.688,270.037 Z" id="Shape" fill="#FFFFFF"></path>
                <path d="M311.206,218.114 L312.531,218.114 L346.888,293.899 L330.649,293.899 L327.114,284.392 L296.623,284.392 L293.088,293.899 L278.175,293.899 L311.206,218.114 L311.206,218.114 Z M321.591,272.468 L316.178,259.432 C313.968,254.129 311.649,244.954 311.649,244.954 C311.649,244.954 309.439,254.129 307.229,259.432 L301.816,272.468 L321.591,272.468 L321.591,272.468 Z" id="Shape" fill="#FFFFFF"></path>
                <path d="M353.308,218.777 L368.774,218.777 L368.774,280.311 L402.8,280.311 L402.8,293.899 L353.308,293.899 L353.308,218.777 L353.308,218.777 Z" id="Shape" fill="#FFFFFF"></path>
                <g transform="translate(73.000000, 329.000000)" id="Shape" fill="#FFFFFF">
                    <path d="M0.065,13.649 C0.065,6.813 4.895,1.813 11.867,1.813 C15.642,1.813 18.364,2.834 20.268,5.01 L17.037,8.207 C15.881,7.017 14.554,6.099 11.867,6.099 C7.683,6.099 4.963,9.329 4.963,13.649 C4.963,17.969 7.752,21.268 12.616,21.268 C14.113,21.268 15.949,20.996 17.139,20.417 L17.139,17.016 L11.561,17.016 L11.561,12.833 L21.493,12.833 L21.493,22.832 C20.166,23.921 16.833,25.519 12.616,25.519 C5.065,25.52 0.065,20.486 0.065,13.649 L0.065,13.649 Z"></path>
                    <path d="M27.923,10.725 L32.514,10.725 L32.446,13.344 C33.5,10.963 35.201,10.419 36.697,10.419 C37.649,10.419 38.364,10.69 38.942,10.997 L37.48,15.181 C36.902,14.909 36.358,14.739 35.711,14.739 C33.636,14.739 32.514,15.691 32.514,18.786 L32.514,25.215 L27.923,25.215 L27.923,10.725 L27.923,10.725 Z"></path>
                    <path d="M49.021,14.194 C47.286,14.194 46.368,14.942 45.722,15.52 L43.171,12.799 C44.531,11.472 46.062,10.418 49.463,10.418 C53.171,10.418 55.993,12.425 55.993,16.982 L55.993,25.212 L51.435,25.212 L51.537,23.205 C50.449,24.872 49.19,25.517 47.252,25.517 C44.599,25.517 42.15,24.327 42.15,20.959 C42.15,17.864 44.497,16.605 48.068,16.605 L51.435,16.605 C51.368,14.942 50.551,14.194 49.021,14.194 L49.021,14.194 Z M48.307,19.33 C47.151,19.33 46.64,19.84 46.64,20.656 C46.64,21.472 47.32,21.949 48.613,21.949 C50.484,21.949 51.436,21.133 51.436,19.908 L51.436,19.33 L48.307,19.33 L48.307,19.33 Z"></path>
                    <path d="M62.966,14.534 L60.551,14.534 L60.551,10.724 L62.966,10.724 L62.966,5.861 C62.966,2.12 64.735,0.215 68.306,0.215 C70.347,0.215 71.707,0.827 72.762,2.052 L70.279,5.114 C69.939,4.706 69.531,4.332 68.817,4.332 C68.068,4.332 67.559,4.739 67.559,5.794 L67.559,10.726 L71.47,10.726 L71.47,14.536 L67.559,14.536 L67.559,25.216 L62.967,25.216 L62.967,14.534 L62.966,14.534 Z"></path>
                    <path d="M75.791,5.419 C75.791,3.752 77.151,2.562 78.716,2.562 C80.28,2.562 81.607,3.752 81.607,5.419 C81.607,7.119 80.281,8.31 78.716,8.31 C77.151,8.31 75.791,7.119 75.791,5.419 L75.791,5.419 Z M76.403,10.725 L80.995,10.725 L80.995,25.214 L76.403,25.214 L76.403,10.725 L76.403,10.725 Z"></path>
                    <path d="M91.551,25.214 L86.96,25.214 L86.96,0.657 L91.551,0.657 L91.551,13.174 C91.551,14.262 91.449,15.385 91.313,16.303 L96.075,10.725 L101.177,10.725 L96.041,16.643 L101.721,25.214 L96.381,25.214 L92.776,19.738 L91.551,21.03 L91.551,25.214 L91.551,25.214 Z"></path>
                    <path d="M130.194,17.255 C130.704,16.065 131.01,14.636 131.01,12.936 L135.296,12.936 C135.296,16.031 134.445,18.684 133.017,20.759 L136.622,25.214 L131.01,25.214 L129.854,23.785 C128.119,24.908 126.079,25.519 123.902,25.519 C118.154,25.519 114.923,22.663 114.923,18.717 C114.923,15.384 116.623,13.683 120.263,11.88 C119.106,10.316 118.664,8.854 118.664,7.289 C118.664,4.296 120.943,1.812 124.786,1.812 C128.459,1.812 130.772,3.955 130.772,7.186 C130.772,9.397 129.48,11.2 126.555,12.73 L130.194,17.255 L130.194,17.255 Z M122.406,14.568 C120.399,15.656 119.889,16.846 119.889,18.343 C119.889,20.281 121.114,21.404 123.903,21.404 C125.128,21.404 126.25,21.133 127.27,20.588 L122.406,14.568 L122.406,14.568 Z M126.623,7.153 C126.623,6.099 125.909,5.487 124.854,5.487 C123.8,5.487 123.018,6.201 123.018,7.221 C123.018,8.411 123.596,9.058 124.242,9.874 L124.31,9.976 C126.011,9.024 126.623,8.208 126.623,7.153 L126.623,7.153 Z"></path>
                    <path d="M151.595,2.086 L156.357,2.086 L156.357,25.214 L151.595,25.214 L151.595,2.086 L151.595,2.086 Z"></path>
                    <path d="M163.012,0.657 L167.57,0.657 L167.57,25.214 L163.012,25.214 L163.012,0.657 L163.012,0.657 Z"></path>
                    <path d="M173.52,0.657 L178.078,0.657 L178.078,25.214 L173.52,25.214 L173.52,0.657 L173.52,0.657 Z"></path>
                    <path d="M183.905,19.092 L183.905,10.725 L188.497,10.725 L188.497,18.786 C188.497,20.419 189.279,21.371 190.912,21.371 C192.749,21.371 193.769,20.317 193.769,18.48 L193.769,10.725 L198.36,10.725 L198.36,25.214 L193.769,25.214 L193.871,22.833 C192.987,24.567 191.32,25.52 189.313,25.52 C186.15,25.52 183.905,23.207 183.905,19.092 L183.905,19.092 Z"></path>
                    <path d="M203.116,22.765 L205.804,20.384 C206.79,21.337 208.048,21.915 209.408,21.915 C210.905,21.915 211.381,21.643 211.381,21.03 C211.381,20.248 210.463,20.248 208.116,19.635 C206.143,19.125 203.932,18.036 203.932,15.01 C203.932,11.744 206.449,10.418 209.544,10.418 C211.925,10.418 213.625,11.2 214.815,12.425 L212.366,15.043 C211.686,14.465 210.666,13.955 209.578,13.955 C208.523,13.955 208.013,14.227 208.013,14.806 C208.013,15.621 208.932,15.724 210.905,16.166 C213.013,16.642 215.667,17.628 215.667,20.689 C215.667,23.341 214.272,25.518 209.715,25.518 C206.348,25.52 204.375,24.262 203.116,22.765 L203.116,22.765 Z"></path>
                    <path d="M221.578,19.771 L221.578,14.534 L219.435,14.534 L219.435,10.724 L221.578,10.724 L221.578,3.173 L226.136,3.173 L226.136,10.724 L229.843,10.724 L229.843,14.534 L226.136,14.534 L226.136,19.908 C226.136,21.37 226.612,21.677 227.326,21.677 C228.074,21.677 228.618,21.269 228.925,21.065 L230.659,24.262 C229.945,24.84 228.721,25.588 226.611,25.588 C223.687,25.588 221.578,24.125 221.578,19.771 L221.578,19.771 Z"></path>
                    <path d="M235.312,10.725 L239.904,10.725 L239.836,13.344 C240.891,10.963 242.591,10.419 244.088,10.419 C245.04,10.419 245.754,10.69 246.332,10.997 L244.87,15.181 C244.292,14.909 243.747,14.739 243.101,14.739 C241.026,14.739 239.904,15.691 239.904,18.786 L239.904,25.215 L235.312,25.215 L235.312,10.725 L235.312,10.725 Z"></path>
                    <path d="M256.409,14.194 C254.675,14.194 253.756,14.942 253.11,15.52 L250.559,12.799 C251.919,11.472 253.45,10.418 256.851,10.418 C260.558,10.418 263.381,12.425 263.381,16.982 L263.381,25.212 L258.823,25.212 L258.925,23.205 C257.837,24.872 256.578,25.517 254.64,25.517 C251.987,25.517 249.538,24.327 249.538,20.959 C249.538,17.864 251.885,16.605 255.456,16.605 L258.823,16.605 C258.756,14.942 257.939,14.194 256.409,14.194 L256.409,14.194 Z M255.695,19.33 C254.538,19.33 254.028,19.84 254.028,20.656 C254.028,21.472 254.709,21.949 256.001,21.949 C257.872,21.949 258.824,21.133 258.824,19.908 L258.824,19.33 L255.695,19.33 L255.695,19.33 Z"></path>
                    <path d="M270.083,19.771 L270.083,14.534 L267.94,14.534 L267.94,10.724 L270.083,10.724 L270.083,3.173 L274.641,3.173 L274.641,10.724 L278.348,10.724 L278.348,14.534 L274.641,14.534 L274.641,19.908 C274.641,21.37 275.117,21.677 275.831,21.677 C276.579,21.677 277.123,21.269 277.43,21.065 L279.164,24.262 C278.45,24.84 277.226,25.588 275.116,25.588 C272.191,25.588 270.083,24.125 270.083,19.771 L270.083,19.771 Z"></path>
                    <path d="M284.201,5.419 C284.201,3.752 285.561,2.562 287.126,2.562 C288.691,2.562 290.018,3.752 290.018,5.419 C290.018,7.119 288.691,8.31 287.126,8.31 C285.561,8.31 284.201,7.119 284.201,5.419 L284.201,5.419 Z M284.813,10.725 L289.405,10.725 L289.405,25.214 L284.813,25.214 L284.813,10.725 L284.813,10.725 Z"></path>
                    <path d="M294.576,18.003 C294.576,13.582 298.08,10.419 302.569,10.419 C307.058,10.419 310.528,13.582 310.528,18.003 C310.528,22.391 307.058,25.52 302.569,25.52 C298.08,25.52 294.576,22.391 294.576,18.003 L294.576,18.003 Z M305.835,18.003 C305.835,15.826 304.61,14.364 302.569,14.364 C300.528,14.364 299.27,15.826 299.27,18.003 C299.27,20.147 300.528,21.643 302.569,21.643 C304.61,21.643 305.835,20.146 305.835,18.003 L305.835,18.003 Z"></path>
                    <path d="M315.056,10.725 L319.648,10.725 L319.545,13.106 C320.43,11.372 322.13,10.419 324.137,10.419 C327.3,10.419 329.579,12.731 329.579,16.847 L329.579,25.214 L324.987,25.214 L324.987,17.153 C324.987,15.52 324.205,14.602 322.572,14.602 C320.735,14.602 319.647,15.622 319.647,17.458 L319.647,25.213 L315.055,25.213 L315.055,10.725 L315.056,10.725 Z"></path>
                </g>
            </g>
        </g>
    </g>
</svg>